#define noname_width 36
#define noname_height 10
static char noname_bits[] = {
 0xce,0x00,0x00,0xc0,0x07,0x4a,0xe0,0x7f,0x20,0x0f,0x6f,0x00,0x00,0xa0,0x05,
 0x6c,0x00,0x00,0x80,0x01,0x64,0xe0,0x7f,0x80,0x05,0x24,0xe0,0x3f,0xb0,0x04,
 0x3c,0x00,0x00,0xf0,0x07,0x30,0x00,0x00,0x00,0x00,0x1e,0x00,0x00,0x00,0x00,
 0x1e,0x00,0x00,0x00,0x00};
