#define noname_width 61
#define noname_height 16
static char noname_bits[] = {
 0x07,0x00,0x00,0x00,0x00,0x00,0x00,0x1c,0x07,0x00,0x00,0x00,0x00,0x00,0x00,
 0x1c,0x01,0x00,0x8e,0x0f,0x00,0x70,0xf8,0x10,0x01,0x00,0x8f,0x19,0x00,0x78,
 0x98,0x11,0x01,0x00,0x8c,0x18,0x00,0x60,0x88,0x11,0x01,0x00,0xcc,0x18,0x18,
 0x60,0x8c,0x11,0x01,0x00,0xcc,0x18,0x18,0x60,0x8c,0x11,0x01,0x00,0xcc,0x18,
 0x00,0x60,0x8c,0x11,0xf1,0x1f,0xcc,0x18,0x00,0x60,0x8c,0x11,0x01,0x00,0xcc,
 0x18,0x00,0x60,0x8c,0x11,0x01,0x00,0x8c,0x19,0x18,0x60,0x98,0x11,0x01,0x00,
 0xbf,0x0d,0x18,0xf8,0xd9,0x10,0x01,0x00,0x00,0x07,0x00,0x00,0x70,0x10,0x01,
 0x00,0x00,0x00,0x00,0x00,0x00,0x10,0x01,0x00,0x00,0x00,0x00,0x00,0x00,0x10,
 0x07,0x00,0x00,0x00,0x00,0x00,0x00,0x1c};
