#define noname_width 8
#define noname_height 10
static char noname_bits[] = {
 0xce,0x4a,0x6f,0x6c,0x64,0x24,0x3c,0x30,0x1e,0x1e};
