#define noname_width 43
#define noname_height 16
static char noname_bits[] = {
 0x07,0x00,0x00,0x00,0x00,0x07,0x07,0x00,0x00,0x00,0x00,0x07,0x01,0x00,0x00,
 0x00,0x00,0x04,0x01,0x00,0x00,0x00,0x00,0x04,0x01,0x00,0x00,0x00,0x00,0x04,
 0x01,0x00,0x7f,0x00,0x7f,0x04,0x01,0x80,0x7f,0x80,0x7f,0x04,0x01,0x80,0x14,
 0x80,0x14,0x04,0xf1,0x1f,0x1e,0x00,0x1e,0x04,0x01,0x00,0x1a,0x00,0x1a,0x04,
 0x01,0x00,0x1b,0x06,0x1b,0x04,0x01,0x00,0x1b,0x0e,0x1b,0x04,0x01,0x00,0x00,
 0x08,0x00,0x04,0x01,0x00,0x00,0x04,0x00,0x04,0x01,0x00,0x00,0x06,0x00,0x04,
 0x07,0x00,0x00,0x00,0x00,0x07};
