#define noname_width 27
#define noname_height 14
static char noname_bits[] = {
 0xfe,0x03,0xdf,0x03,0x36,0x03,0x8e,0x01,0x33,0x02,0x9c,0x00,0x31,0xff,0x59,
 0x00,0x30,0x8c,0x79,0x00,0x30,0x0c,0x71,0x00,0x30,0x4c,0x71,0x00,0x30,0x4c,
 0xf8,0x00,0x30,0x7c,0xc8,0x01,0x30,0x4c,0x8c,0x01,0xfc,0x4d,0xcf,0x07,0x00,
 0x0c,0x02,0x00,0x00,0x0c,0x03,0x00,0x00,0xff,0x01,0x00};
