#define noname_width 8
#define noname_height 7
static char noname_bits[] = {
 0xfe,0xff,0x29,0x3c,0x34,0x36,0x36};
