#define noname_width 18
#define noname_height 7
static char noname_bits[] = {
 0x00,0xf8,0x03,0x00,0xfc,0x03,0x00,0xa4,0x00,0xff,0xf1,0x00,0x00,0xd0,0x00,
 0x00,0xd8,0x00,0x00,0xd8,0x00};
