#define noname_width 8
#define noname_height 7
static char noname_bits[] = {
 0x7c,0xf2,0x5a,0x18,0x58,0x4b,0x7f};
