#define noname_width 24
#define noname_height 16
static char noname_bits[] = {
 0x00,0x80,0x00,0x00,0xc0,0x00,0x00,0x40,0x60,0x00,0x60,0x70,0x00,0x60,0x70,
 0xfe,0x20,0x78,0xff,0x30,0x6c,0x29,0x30,0x64,0x3c,0x10,0x66,0x34,0x18,0xfe,
 0x36,0x18,0x60,0x36,0x08,0xf0,0x00,0x0c,0x00,0x00,0x0c,0x00,0x00,0x04,0x00,
 0x00,0x04,0x00};
