#define noname_width 38
#define noname_height 16
static char noname_bits[] = {
 0x00,0x00,0x40,0x00,0x04,0x80,0x00,0x60,0x00,0x0c,0xc0,0x01,0x30,0x00,0x18,
 0x80,0x00,0x10,0x00,0x18,0x00,0x00,0x18,0x00,0x10,0xde,0xfd,0x18,0x7c,0x30,
 0x93,0xb9,0x09,0xf2,0x30,0x97,0x99,0x09,0x5a,0x30,0x9e,0x99,0x09,0x18,0x30,
 0x99,0x99,0x09,0x58,0x30,0x93,0x99,0x09,0x4b,0x30,0xdf,0xff,0x1b,0x7f,0x30,
 0x00,0x00,0x18,0x00,0x10,0x00,0x00,0x10,0x00,0x18,0x00,0x00,0x30,0x00,0x08,
 0x00,0x00,0x60,0x00,0x04};
