#define noname_width 38
#define noname_height 16
static char noname_bits[] = {
 0x3f,0xf0,0x1f,0xf8,0x1e,0x0c,0xb1,0x19,0x70,0x0c,0x8c,0x99,0x11,0xe0,0x04,
 0x8c,0x8b,0x11,0xc0,0x02,0xcc,0x83,0x01,0xc0,0x03,0x4c,0x86,0xf9,0x8f,0x03,
 0xcc,0x87,0x61,0x8c,0x03,0x6c,0x87,0x61,0xc8,0x07,0xfc,0x9f,0x61,0x4a,0x0e,
 0x8c,0x80,0x61,0x62,0x0c,0xff,0xe0,0xef,0x7b,0x3e,0x00,0x00,0x60,0x02,0x00,
 0x00,0x00,0x60,0x12,0x00,0x00,0x00,0x60,0x10,0x00,0x00,0x00,0x60,0x18,0x00,
 0x00,0x00,0xf8,0x0f,0x00};
