#define noname_width 28
#define noname_height 16
static char noname_bits[] = {
 0x07,0x00,0x00,0x0e,0x07,0x00,0x00,0x0e,0xf1,0x01,0x70,0x08,0x31,0x03,0x78,
 0x08,0x11,0x03,0x60,0x08,0x19,0x03,0x60,0x08,0x19,0x03,0x60,0x08,0x19,0x03,
 0x60,0x08,0x19,0x03,0x60,0x08,0x19,0x03,0x60,0x08,0x31,0x33,0x60,0x08,0xb1,
 0x71,0xf8,0x09,0xe1,0x40,0x00,0x08,0x01,0x20,0x00,0x08,0x01,0x30,0x00,0x08,
 0x07,0x00,0x00,0x0e};
