#define noname_width 38
#define noname_height 16
static char noname_bits[] = {
 0x07,0x00,0x00,0x00,0x38,0x07,0x00,0x00,0x00,0x38,0xf1,0x01,0xf8,0x00,0x20,
 0x31,0x03,0x8c,0x01,0x20,0x11,0x03,0x9c,0x01,0x20,0x19,0x03,0x9c,0xfd,0x21,
 0x19,0x03,0xc0,0xff,0x21,0x19,0x03,0xc0,0x52,0x20,0x19,0x03,0x60,0x78,0x20,
 0x19,0x03,0x30,0x69,0x20,0x31,0x33,0x18,0x6d,0x20,0xb1,0x71,0xfc,0x6d,0x20,
 0xe1,0x40,0x00,0x00,0x20,0x01,0x20,0x00,0x00,0x20,0x01,0x30,0x00,0x00,0x20,
 0x07,0x00,0x00,0x00,0x38};
